<svg width="256" height="256" xmlns="http://www.w3.org/2000/svg">
  <!-- Background -->
  <rect width="256" height="256" fill="white"/>
  
  <!-- WeChat QR Code Placeholder -->
  <g fill="black">
    <!-- Top-left position marker -->
    <rect x="20" y="20" width="50" height="50"/>
    <rect x="30" y="30" width="30" height="30" fill="white"/>
    <rect x="40" y="40" width="10" height="10" fill="black"/>
    
    <!-- Top-right position marker -->
    <rect x="186" y="20" width="50" height="50"/>
    <rect x="196" y="30" width="30" height="30" fill="white"/>
    <rect x="206" y="40" width="10" height="10" fill="black"/>
    
    <!-- Bottom-left position marker -->
    <rect x="20" y="186" width="50" height="50"/>
    <rect x="30" y="196" width="30" height="30" fill="white"/>
    <rect x="40" y="206" width="10" height="10" fill="black"/>
  </g>
  
  <!-- Random QR pattern -->
  <g fill="black" opacity="0.7">
    <rect x="80" y="80" width="8" height="8"/>
    <rect x="100" y="80" width="8" height="8"/>
    <rect x="120" y="80" width="8" height="8"/>
    <rect x="140" y="80" width="8" height="8"/>
    <rect x="160" y="80" width="8" height="8"/>
    
    <rect x="80" y="100" width="8" height="8"/>
    <rect x="140" y="100" width="8" height="8"/>
    <rect x="160" y="100" width="8" height="8"/>
    
    <rect x="100" y="120" width="8" height="8"/>
    <rect x="120" y="120" width="8" height="8"/>
    <rect x="160" y="120" width="8" height="8"/>
    
    <rect x="80" y="140" width="8" height="8"/>
    <rect x="100" y="140" width="8" height="8"/>
    <rect x="140" y="140" width="8" height="8"/>
    
    <rect x="120" y="160" width="8" height="8"/>
    <rect x="140" y="160" width="8" height="8"/>
    <rect x="160" y="160" width="8" height="8"/>
  </g>
  
  <!-- WeChat label -->
  <text x="128" y="220" font-size="14" font-weight="bold" text-anchor="middle" fill="black">WeChat Pay</text>
</svg>